<!-- icon666.com - MILLIONS vector ICONS FREE --><svg version="1.1" id="Layer_1" xmlns="http://www.w3.org/2000/svg" xmlns:xlink="http://www.w3.org/1999/xlink" x="0px" y="0px" viewBox="0 0 512 512" style="enable-background:new 0 0 512 512;" xml:space="preserve"><path style="fill:#FFE14D;" d="M256,512C114.837,512,0,397.157,0,256S114.837,0,256,0s256,114.843,256,256S397.163,512,256,512z"></path><path style="fill:#FFCC33;" d="M512,256C512,114.843,397.163,0,256,0v512C397.163,512,512,397.157,512,256z"></path><path style="fill:#FF9F19;" d="M256,445.217c-104.337,0-189.217-84.881-189.217-189.217S151.663,66.783,256,66.783 S445.217,151.663,445.217,256S360.337,445.217,256,445.217z M256,100.174c-85.924,0-155.826,69.902-155.826,155.826 S170.076,411.826,256,411.826S411.826,341.924,411.826,256S341.924,100.174,256,100.174z"></path><path style="fill:#F28618;" d="M411.826,256c0,85.924-69.902,155.826-155.826,155.826v33.391 c104.337,0,189.217-84.881,189.217-189.217S360.337,66.783,256,66.783v33.391C341.924,100.174,411.826,170.076,411.826,256z"></path><path style="fill:#FF9F19;" d="M256,239.304c-4.457,0-8.652-1.74-11.804-4.896c-3.152-3.152-4.892-7.343-4.892-11.799 s1.74-8.647,4.892-11.804c6.304-6.304,17.304-6.31,23.609,0.006c3.152,3.151,4.891,7.342,4.891,11.798 c0,9.223,7.479,16.696,16.696,16.696c9.217,0,16.696-7.473,16.696-16.696c0-13.385-5.218-25.962-14.674-35.413 c-5.357-5.36-11.778-9.18-18.717-11.637v-14.168c0-9.223-7.479-16.696-16.696-16.696c-9.217,0-16.696,7.473-16.696,16.696v14.167 c-6.939,2.458-13.36,6.275-18.717,11.632c-9.456,9.456-14.674,22.033-14.674,35.418c0,13.385,5.218,25.962,14.674,35.413 c9.456,9.462,22.033,14.674,35.413,14.674c4.457,0,8.652,1.74,11.804,4.896c3.153,3.152,4.892,7.343,4.892,11.799 c0,4.457-1.74,8.647-4.892,11.804c-6.304,6.304-17.304,6.31-23.609-0.006c-3.151-3.151-4.891-7.342-4.891-11.798 c0-9.223-7.479-16.696-16.696-16.696s-16.696,7.473-16.696,16.696c0,13.385,5.218,25.962,14.674,35.413 c5.357,5.36,11.778,9.18,18.717,11.637v14.168c0,9.223,7.479,16.696,16.696,16.696s16.696-7.473,16.696-16.696v-14.167 c6.939-2.458,13.36-6.275,18.717-11.632c9.457-9.456,14.674-22.033,14.674-35.418s-5.218-25.962-14.674-35.413 C281.956,244.517,269.38,239.304,256,239.304z"></path><g><path style="fill:#F28618;" d="M267.804,210.809c3.153,3.152,4.892,7.343,4.892,11.799c0,9.223,7.479,16.696,16.696,16.696 c9.217,0,16.696-7.473,16.696-16.696c0-13.385-5.218-25.962-14.674-35.413c-5.357-5.36-11.778-9.18-18.717-11.637v-14.168 c0-9.223-7.479-16.696-16.696-16.696v61.379C260.326,206.074,264.652,207.653,267.804,210.809z"></path><path style="fill:#F28618;" d="M272.696,350.609v-14.167c6.939-2.458,13.36-6.275,18.717-11.632 c9.457-9.456,14.674-22.033,14.674-35.418s-5.218-25.962-14.674-35.413c-9.456-9.462-22.033-14.674-35.413-14.674v33.391 c4.457,0,8.652,1.74,11.804,4.896c3.153,3.152,4.892,7.343,4.892,11.799c0,4.457-1.74,8.647-4.892,11.804 c-3.152,3.152-7.479,4.729-11.804,4.729v61.38C265.217,367.304,272.696,359.831,272.696,350.609z"></path></g></svg>