<!-- icon666.com - MILLIONS vector ICONS FREE --><svg id="Lines" viewBox="0 0 60 60" xmlns="http://www.w3.org/2000/svg"><path d="m1 50.18v-30.18a3 3 0 0 1 3-3h36a3 3 0 0 1 3 3v29.25z" fill="#314489"></path><circle cx="11" cy="27" fill="#f28267" r="5"></circle><path d="m32.31 40.44a1.959 1.959 0 0 0 -2.48 0l-7.26 5.98-7.26-5.98a1.959 1.959 0 0 0 -2.48 0l-11.83 9.74v5.82a3 3 0 0 0 3 3h36a3 3 0 0 0 3-3v-6.75z" fill="#2bc193"></path><path d="m43 49.25v6.75a3 3 0 0 1 -3 3h-2.15l-15.28-12.58 7.26-5.98a1.959 1.959 0 0 1 2.48 0z" fill="#36ddad"></path><path d="m33.68 34.27a3.8 3.8 0 0 1 -1.85 1.02l-7.36 1.68a1.2 1.2 0 0 1 -1.44-1.44l1.68-7.36a3.8 3.8 0 0 1 1.02-1.85h.01l5.26 2.68z" fill="#a6725c"></path><path d="m58.33 9.62-3.17 3.18-1.947.256-6.223-6.376.216-1.836 3.174-3.174a2.239 2.239 0 0 1 3.19 0l4.76 4.76a2.239 2.239 0 0 1 0 3.19z" fill="#f28267"></path><path d="m51.972 14.138.005 1.838-18.287 18.294h-.01l-7.94-7.95 18.287-18.294 1.798.04z" fill="#fbdd4d"></path><path d="m47.342 4.786h4.498v11.246h-4.498z" fill="#dfeef2" transform="matrix(.707 -.707 .707 .707 7.165 38.115)"></path><path d="m25.923 20.144h25.866v2h-25.866z" fill="#e0b63f" transform="matrix(.707 -.707 .707 .707 -3.57 33.668)"></path></svg>