<svg width="26" height="26" viewBox="0 0 26 26" fill="none" xmlns="http://www.w3.org/2000/svg">
<g clip-path="url(#clip0_1778_945)">
<path d="M4.12035 4.45972C2.80438 5.25391 2 6.67887 2 8.2159V17.8822C2 19.4192 2.80438 20.8442 4.12035 21.6384L10.595 25.5458C11.9891 26.3872 13.7345 26.3872 15.1287 25.5459L21.6037 21.6384C22.9197 20.8442 23.7241 19.4192 23.7241 17.8821V8.216C23.7241 6.67889 22.9197 5.2539 21.6037 4.45972L15.1287 0.55221C13.7345 -0.28911 11.9891 -0.28909 10.595 0.55226L4.12035 4.45972Z" fill="#1CB0F6" stroke="white" stroke-width="2"/>
<path fill-rule="evenodd" clip-rule="evenodd" d="M10.6547 3.45314C11.4031 3.01112 12.3658 3.52889 12.3658 4.37339V7.53852C12.3658 7.91649 12.1603 8.267 11.824 8.4626L8.75881 10.2455C8.37808 10.4669 7.89727 10.4514 7.53287 10.2058L5.05139 8.5338C4.3895 8.0878 4.41941 7.13584 5.10809 6.7291L10.6547 3.45314Z" fill="#DDF4FF"/>
</g>
<defs>
<clipPath id="clip0_1778_945">
<rect width="26" height="26" fill="white"/>
</clipPath>
</defs>
</svg>
