<!-- icon666.com - MILLIONS vector ICONS FREE --><svg version="1.1" id="Capa_1" xmlns="http://www.w3.org/2000/svg" xmlns:xlink="http://www.w3.org/1999/xlink" x="0px" y="0px" viewBox="0 0 512.001 512.001" style="enable-background:new 0 0 512.001 512.001;" xml:space="preserve"><path style="fill:#F04D4E;" d="M23.436,160.263c-1.699,34.071,10.484,67.409,33.455,91.462l188.951,209.094 c5.318,5.9,14.988,5.9,20.305,0l188.742-208.861c23.191-24.285,35.386-57.623,33.687-91.695 c-1.711-34.281-16.721-65.199-42.252-87.075c-38.551-33.024-94.243-35.596-135.412-6.249l0,0 c-20.515,14.627-35.677,35.316-43.869,59.846c-1.583,4.748-6.039,7.948-11.043,7.948c-5.004,0-9.449-3.2-11.043-7.948 c-8.192-24.529-23.354-45.219-43.869-59.846c-19.13-13.638-41.402-20.375-63.616-20.375c-25.6,0-51.153,8.948-71.796,26.636 C40.158,95.065,25.147,125.982,23.436,160.263z"></path><g><path style="fill:#DD353F;" d="M179.387,67.184c20.55,14.65,35.735,35.34,43.904,59.846c1.559,4.666,5.772,7.796,10.484,7.796 c4.713,0,8.925-3.119,10.484-7.796c0.198-0.582,0.442-1.129,0.64-1.699c-8.297-23.808-23.215-43.939-43.311-58.263 c-19.281-13.743-41.74-20.55-64.14-20.55c-4.259,0-8.506,0.337-12.73,0.826C143.919,49.008,162.828,55.385,179.387,67.184z"></path><path style="fill:#DD353F;" d="M446.872,73.351c-8.227-7.052-17.268-12.637-26.74-16.919c21.527,21.411,34.176,49.78,35.665,80.989 c1.617,33.85-10.577,66.991-33.664,91.171l-188.73,208.861c-1.594,1.769-3.619,2.886-5.783,3.631l17.652,19.537 c5.527,6.144,15.872,6.156,21.446,0l188.73-208.849c23.087-24.18,35.27-57.321,33.664-91.171 C487.483,126.285,472.472,95.297,446.872,73.351z"></path></g><g><path style="fill:#F26A5F;" d="M69.819,174.611c-6.435,0-11.636-5.213-11.636-11.636c0-44.905,36.55-81.443,81.455-81.443 c6.435,0,11.636,5.213,11.636,11.636c0,6.423-5.201,11.636-11.636,11.636c-32.081,0-58.182,26.1-58.182,58.17 C81.455,169.398,76.254,174.611,69.819,174.611z"></path><path style="fill:#F26A5F;" d="M302.546,174.611c-6.435,0-11.636-5.213-11.636-11.636c0-44.905,36.55-81.443,81.455-81.443 c6.435,0,11.636,5.213,11.636,11.636c0,6.423-5.201,11.636-11.636,11.636c-32.081,0-58.182,26.1-58.182,58.17 C314.182,169.398,308.981,174.611,302.546,174.611z"></path></g><path style="fill:#014463;" d="M256,488.723c-10.368,0-20.364-4.492-27.427-12.3L39.843,267.562 C12.696,239.146-1.838,199.524,0.187,159.099c2.036-40.727,19.921-77.51,50.351-103.575c46.697-40.006,114.164-43.089,164.073-7.529 C231.762,60.225,245.784,75.958,256,94.32c10.217-18.351,24.239-34.095,41.402-46.324l0,0 c49.897-35.572,117.353-32.477,164.061,7.529c30.429,26.065,48.314,62.86,50.351,103.575c2.025,40.425-12.509,80.035-39.878,108.695 L283.416,476.423C276.352,484.231,266.357,488.723,256,488.723z M137.472,46.553c-25.6,0-51.153,8.948-71.796,26.636 c-25.519,21.876-40.529,52.794-42.24,87.075c-1.699,34.071,10.484,67.409,33.455,91.462l188.951,209.094 c5.318,5.9,14.988,5.9,20.305,0l188.742-208.861c23.191-24.285,35.386-57.623,33.687-91.695 c-1.711-34.281-16.721-65.199-42.252-87.075c-38.551-33.024-94.243-35.596-135.412-6.249l0,0 c-20.515,14.627-35.677,35.316-43.869,59.846c-1.583,4.748-6.039,7.948-11.043,7.948c-5.004,0-9.449-3.2-11.043-7.948 c-8.192-24.529-23.354-45.219-43.869-59.846C181.958,53.302,159.698,46.553,137.472,46.553z"></path></svg>