<!-- icon666.com - MILLIONS vector ICONS FREE --><svg version="1.1" id="Capa_1" xmlns="http://www.w3.org/2000/svg" xmlns:xlink="http://www.w3.org/1999/xlink" x="0px" y="0px" viewBox="0 0 512 512" style="enable-background:new 0 0 512 512;" xml:space="preserve"><path style="fill:#495A79;" d="M166,512H45c-8.291,0-15-6.709-15-15V376c0-8.291,6.709-15,15-15h121c8.291,0,15,6.709,15,15v121 C181,505.291,174.291,512,166,512z"></path><path style="fill:#6F7D96;" d="M166,391H15c-8.291,0-15-6.709-15-15s6.709-15,15-15h151c8.291,0,15,6.709,15,15S174.291,391,166,391 z"></path><path style="fill:#42516D;" d="M467,512H346c-8.291,0-15-6.709-15-15v-91c0-8.291,6.709-15,15-15h121c8.291,0,15,6.709,15,15v91 C482,505.291,475.291,512,467,512z"></path><path style="fill:#66728B;" d="M497,421H346c-8.291,0-15-6.709-15-15s6.709-15,15-15h151c8.291,0,15,6.709,15,15 S505.291,421,497,421z"></path><path style="fill:#6F7D96;" d="M346,301H166c-8.401,0-15,6.599-15,15v196h210V316C361,307.599,354.401,301,346,301z"></path><path style="fill:#66728B;" d="M361,316v196H256V301h90C354.401,301,361,307.599,361,316z"></path><path style="fill:#949FB3;" d="M376,331H136c-8.291,0-15-6.709-15-15s6.709-15,15-15h240c8.291,0,15,6.709,15,15 S384.291,331,376,331z"></path><path style="fill:#8A94A8;" d="M376,301H256v30h120c8.291,0,15-6.709,15-15S384.291,301,376,301z"></path><rect x="211" y="120" style="fill:#F6B73C;" width="90" height="90"></rect><g><rect x="256" y="120" style="fill:#F29737;" width="45" height="90"></rect><path style="fill:#F29737;" d="M376,90h-35.127c-8.291,0-15-6.709-15-15s6.709-15,15-15H376c8.276,0,15-6.724,15-15 s-6.724-15-15-15h-30c-8.291,0-15-6.709-15-15s6.709-15,15-15h30c24.814,0,45,20.186,45,45S400.814,90,376,90z"></path></g><path style="fill:#F6B73C;" d="M171.127,90H136c-24.814,0-45-20.186-45-45s20.186-45,45-45h30c8.291,0,15,6.709,15,15 s-6.709,15-15,15h-30c-8.276,0-15,6.724-15,15s6.724,15,15,15h35.127c8.291,0,15,6.709,15,15S179.418,90,171.127,90z"></path><path style="fill:#FFCD33;" d="M301,436c0,8.401-6.599,15-15,15h-60c-8.401,0-15-6.599-15-15s6.599-15,15-15h15v-30h-15 c-8.401,0-15-6.599-15-15s6.599-15,15-15h30c8.401,0,15,6.599,15,15v45h15C294.401,421,301,427.599,301,436z"></path><path style="fill:#FFB54C;" d="M301,436c0,8.401-6.599,15-15,15h-30v-90c8.401,0,15,6.599,15,15v45h15 C294.401,421,301,427.599,301,436z"></path><path style="fill:#FFDE33;" d="M361,0v45c0,57.9-47.1,105-105,105S151,102.9,151,45V0H361z"></path><path style="fill:#FFBC33;" d="M361,0v45c0,57.9-47.1,105-105,105V0H361z"></path><path style="fill:#FFDE33;" d="M316,271H196c-8.291,0-15-6.709-15-15v-31c0-24.814,20.186-45,45-45h60c24.814,0,45,20.186,45,45v31 C331,264.291,324.291,271,316,271z"></path><path style="fill:#FFBC33;" d="M286,180h-30v91h60c8.291,0,15-6.709,15-15v-31C331,200.186,310.814,180,286,180z"></path></svg>