<!-- icon666.com - MILLIONS vector ICONS FREE --><svg enable-background="new 0 0 24 24" viewBox="0 0 24 24" xmlns="http://www.w3.org/2000/svg"><path d="m17 11c-.553 0-1-.448-1-1v-4c0-2.206-1.794-4-4-4s-4 1.794-4 4v4c0 .552-.447 1-1 1s-1-.448-1-1v-4c0-3.309 2.691-6 6-6s6 2.691 6 6v4c0 .552-.447 1-1 1z" fill="#607d8b"></path><path d="m18.75 9h-13.5c-1.24 0-2.25 1.009-2.25 2.25v10.5c0 1.241 1.01 2.25 2.25 2.25h13.5c1.24 0 2.25-1.009 2.25-2.25v-10.5c0-1.241-1.01-2.25-2.25-2.25z" fill="#ffc107"></path><path d="m12 0c-3.309 0-6 2.691-6 6v3h2v-3c0-2.206 1.794-4 4-4z" fill="#546d79"></path><path d="m12 9h-4-2-.75c-1.24 0-2.25 1.009-2.25 2.25v10.5c0 1.241 1.01 2.25 2.25 2.25h6.75z" fill="#dea806"></path></svg>