<svg width="68" height="94" viewBox="0 0 68 94" fill="none" xmlns="http://www.w3.org/2000/svg">
<path d="M47.3 84.95L47.45 79.95H35.55L35.4 84.95H47.25H47.3Z" fill="#4C4EAA"/>
<path d="M53 90.95L47.25 84.95H35.4L35.15 90.95H53Z" fill="white"/>
<path d="M52.9 93.95L53 90.95H35.15L35 93.95H52.9Z" fill="#EEA160"/>
<path d="M47.9 70.75C47.9 69.15 47.2667 67.7833 46 66.65C44.7667 65.5166 43.25 64.95 41.45 64.95C39.6833 64.95 38.1667 65.5166 36.9 66.65C35.6333 67.7833 35 69.15 35 70.75L35.55 79.95H47.45L47.9 70.75Z" fill="#676AC6"/>
<path d="M20.7 84.95L20.55 79.95H32.45L32.6 84.95H20.75H20.7Z" fill="#4C4EAA"/>
<path d="M15 90.95L20.75 84.95H32.6L32.85 90.95H15Z" fill="white"/>
<path d="M15.1 93.95L15 90.95H32.85L33 93.95H15.1Z" fill="#EEA160"/>
<path d="M20.1 70.75C20.1 69.15 20.7333 67.7833 22 66.65C23.2333 65.5166 24.75 64.95 26.55 64.95C28.3167 64.95 29.8333 65.5166 31.1 66.65C32.3667 67.7833 33 69.15 33 70.75L32.45 79.95H20.55L20.1 70.75Z" fill="#676AC6"/>
<path d="M64.9 62.4C64.0667 60.1 63 57.8666 61.7 55.7C57.9667 56.6 54.55 58.6666 51.45 61.9C52.0167 62.8 52.5167 63.7166 52.95 64.65C53.9833 66.7833 54.6333 69.0833 54.9 71.55C55.0667 73.15 55.7833 74.4666 57.05 75.5C58.35 76.5 59.8167 76.9333 61.45 76.8C63.05 76.6 64.3667 75.85 65.4 74.55C66.4333 73.3166 66.8667 71.8666 66.7 70.2C66.4667 68.2666 66.1 66.4166 65.6 64.65C65.4 63.8833 65.1667 63.1333 64.9 62.4Z" fill="#BF7958"/>
<path d="M51.55 46.8C49.9167 46.8333 48.5167 47.4333 47.35 48.6C46.2167 49.8 45.6833 51.2 45.75 52.8C45.75 54.4333 46.3167 55.8167 47.45 56.95C49.05 58.4833 50.3833 60.1333 51.45 61.9C54.55 58.6667 57.9667 56.6 61.7 55.7C60.0667 53.1333 58.0833 50.7167 55.75 48.45C54.5833 47.3833 53.1833 46.8333 51.55 46.8Z" fill="#E7F3FC"/>
<path d="M64.15 56.6L62.1 53L49.2 60.5L51.2 64.05L64.15 56.6Z" fill="#BFD4E5"/>
<path d="M3.09999 62.4C3.93332 60.1 4.99999 57.8666 6.29999 55.7C10.0333 56.6 13.45 58.6666 16.55 61.9C15.9833 62.8 15.4833 63.7166 15.05 64.65C14.0167 66.7833 13.3667 69.0833 13.1 71.55C12.9333 73.15 12.2167 74.4666 10.95 75.5C9.64999 76.5 8.18332 76.9333 6.54999 76.8C4.94999 76.6 3.63332 75.85 2.59999 74.55C1.56665 73.3166 1.13332 71.8666 1.29999 70.2C1.53332 68.2666 1.89999 66.4166 2.39999 64.65C2.59999 63.8833 2.83332 63.1333 3.09999 62.4Z" fill="#BF7958"/>
<path d="M16.45 46.8C18.0833 46.8333 19.4833 47.4333 20.65 48.6C21.7833 49.8 22.3167 51.2 22.25 52.8C22.25 54.4333 21.6833 55.8167 20.55 56.95C18.95 58.4833 17.6167 60.1333 16.55 61.9C13.45 58.6667 10.0333 56.6 6.3 55.7C7.93333 53.1333 9.91667 50.7167 12.25 48.45C13.4167 47.3833 14.8167 46.8333 16.45 46.8Z" fill="#E7F3FC"/>
<path d="M3.84999 56.6L5.89999 53L18.8 60.5L16.8 64.05L3.84999 56.6Z" fill="#BFD4E5"/>
<path d="M48.6 70.85V65.9H18.55V70.85H48.6Z" fill="#BFD4E5"/>
<path d="M47.1 76.05C48.0334 74.7833 48.5334 73.05 48.6 70.85H18.55C18.6167 73.05 19.1167 74.7833 20.05 76.05H47.1Z" fill="#676AC6"/>
<path d="M51.8 52.25C52.5 48.65 51.6333 46.9167 49.2 47.05H17.9C15.4667 46.9167 14.6 48.65 15.3 52.25L18.55 65.9H48.6L51.8 52.25Z" fill="#E7F3FC"/>
<path d="M41.6 39.6C39.5 37.9 36.9834 37.05 34.05 37.05C31.1167 37.05 28.6 37.9 26.5 39.6C24.4334 41.4 23.4 43.55 23.4 46.05C23.4 46.2167 23.4167 46.3833 23.45 46.55C23.55 48.8167 24.5667 50.75 26.5 52.35C28.6 54.15 31.1167 55.05 34.05 55.05C36.9834 55.05 39.5 54.15 41.6 52.35C43.5334 50.75 44.55 48.8167 44.65 46.55C44.6834 46.3833 44.7 46.2167 44.7 46.05C44.7 43.55 43.6667 41.4 41.6 39.6Z" fill="#A8603F"/>
<path d="M30.85 66.1L16.75 67.35C17.0167 68.9833 17.3 70.7166 17.6 72.55L30.05 71.05C30.3834 69.5166 30.65 67.8666 30.85 66.1Z" fill="#D78B49"/>
<path d="M30.85 66.1C31.0834 63.7667 31.1667 61.25 31.1 58.55C26.6 55.7167 23.0334 51.4167 20.4 45.65L15.85 44.8C14.4834 47.2667 14.7834 54.7833 16.75 67.35L30.85 66.1Z" fill="#EEA160"/>
<path d="M50.85 67.35L36.75 66.1C36.95 67.8666 37.2167 69.5166 37.55 71.05L50 72.55C50.3 70.7166 50.5833 68.9833 50.85 67.35Z" fill="#D78B49"/>
<path d="M36.5 58.55C36.4333 61.25 36.5167 63.7667 36.75 66.1L50.85 67.35C52.8167 54.7833 53.1167 47.2667 51.75 44.8L47.2 45.65C44.5667 51.4167 41 55.7167 36.5 58.55Z" fill="#EEA160"/>
<path d="M20.95 46.05L18.9 49.65L32 57.25L34.05 53.6L20.95 46.05ZM47.15 46.05L34.05 53.6L36.1 57.25L49.2 49.65L47.15 46.05Z" fill="#BFD4E5"/>
<path d="M36.1 57.25L34.05 53.6L32 57.25H36.1Z" fill="#E7F3FC"/>
<path d="M51.15 81.5L51.1 80.55C51.4333 76.4166 52.7 73.2166 54.9 70.95C49.1 75.25 47.8333 78.7833 51.1 81.55L51.15 81.5Z" fill="#A8603F"/>
<path d="M67.35 72.25C67.3167 71.35 66.8167 70.9 65.85 70.9L54.9 70.95C52.7 73.2167 51.4333 76.4167 51.1 80.55L51.15 81.5L51.1 81.55C51.0667 82.65 51.0667 83.8167 51.1 85.05V85.45C51.1 86.3833 51.8167 86.9833 53.25 87.25C55.35 87.7167 57.4 87.9333 59.4 87.9C65.0667 87.8667 67.7167 82.95 67.35 73.15V72.25Z" fill="#BF7958"/>
<path d="M16.85 81.5L16.9 80.55C16.5667 76.4166 15.3 73.2166 13.1 70.95C18.9 75.25 20.1667 78.7833 16.9 81.55L16.85 81.5Z" fill="#A8603F"/>
<path d="M0.650019 72.25C0.683352 71.35 1.18335 70.9 2.15002 70.9L13.1 70.95C15.3 73.2167 16.5667 76.4167 16.9 80.55L16.85 81.5L16.9 81.55C16.9334 82.65 16.9334 83.8167 16.9 85.05V85.45C16.9 86.3833 16.1834 86.9833 14.75 87.25C12.65 87.7167 10.6 87.9333 8.60002 87.9C2.93335 87.8667 0.283352 82.95 0.650019 73.15V72.25Z" fill="#BF7958"/>
<path d="M48.6448 38.55C44.7256 35.95 39.9773 34.65 34.4 34.65C28.8227 34.65 24.0242 35.95 20.0045 38.55C16.0853 41.2167 14.1257 44.4 14.1257 48.1C14.1257 51.8 16.0853 54.95 20.0045 57.55C24.0242 60.2167 28.8227 61.55 34.4 61.55C39.9773 61.55 44.7256 60.2167 48.6448 57.55C52.6645 54.95 54.6743 51.8 54.6743 48.1C54.6743 44.4 52.6645 41.2167 48.6448 38.55Z" fill="url(#paint0_radial_1718_19837)"/>
<path d="M48.5 5.14999L45.6 0.599988C35.8667 -0.166678 26.75 0.133319 18.25 1.49999C13.4833 2.16665 11.3167 4.43332 11.75 8.29999L11.95 9.99999C12.5833 7.63332 14.7 6.19999 18.3 5.69999C26.8 4.36665 35.9167 4.08332 45.65 4.84999L48.5 5.14999ZM59 9.54999L59.15 8.29999C59.6167 4.53332 57.8 2.26665 53.7 1.49999L49.15 5.24999L53.75 5.69999C56.6167 6.23332 58.3667 7.51665 59 9.54999Z" fill="#454A51"/>
<path d="M53.75 5.69999L49.15 5.24998L48.75 5.54998L48.5 5.14999L45.65 4.84999C35.9167 4.08332 26.8 4.36665 18.3 5.69999C14.7 6.19999 12.5833 7.63332 11.95 9.99998L14.2 29.4C14.5667 32.3 16.4667 33.75 19.9 33.75H51C54.4667 33.75 56.3667 32.3 56.7 29.4L59 9.54999C58.3667 7.51665 56.6167 6.23332 53.75 5.69999Z" fill="#3C3E41"/>
<path d="M11.2 28.95C9.63334 30.5167 8.85001 32.4167 8.85001 34.65C8.85001 36.8833 9.63334 38.7833 11.2 40.35C12.8 41.9833 14.6833 42.8 16.85 42.8C19.05 42.8 20.95 41.9833 22.55 40.35C24.0833 38.7833 24.85 36.8833 24.85 34.65C24.85 32.4167 24.0833 30.5167 22.55 28.95C20.95 27.3167 19.05 26.5 16.85 26.5C14.6833 26.5 12.8 27.3167 11.2 28.95ZM13.5 38.1C12.5667 37.1667 12.1 36.0167 12.1 34.65C12.1 33.35 12.5667 32.2 13.5 31.2C14.4333 30.2667 15.55 29.8 16.85 29.8C18.2167 29.8 19.3667 30.2667 20.3 31.2C21.2333 32.2 21.7 33.35 21.7 34.65C21.7 36.0167 21.2333 37.1667 20.3 38.1C19.3667 39.0667 18.2167 39.55 16.85 39.55C15.55 39.55 14.4333 39.0667 13.5 38.1ZM48.2 28.95C46.6333 30.5167 45.85 32.4167 45.85 34.65C45.85 36.8833 46.6333 38.7833 48.2 40.35C49.8 41.9833 51.6833 42.8 53.85 42.8C56.05 42.8 57.95 41.9833 59.55 40.35C61.0833 38.7833 61.85 36.8833 61.85 34.65C61.85 32.4167 61.0833 30.5167 59.55 28.95C57.95 27.3167 56.05 26.5 53.85 26.5C51.6833 26.5 49.8 27.3167 48.2 28.95ZM50.5 31.2C51.4333 30.2667 52.55 29.8 53.85 29.8C55.1833 29.8 56.3333 30.2667 57.3 31.2C58.2333 32.2 58.7 33.35 58.7 34.65C58.7 36.0167 58.2333 37.1667 57.3 38.1C56.3333 39.0667 55.1833 39.55 53.85 39.55C52.55 39.55 51.4333 39.0667 50.5 38.1C49.5333 37.1667 49.05 36.0167 49.05 34.65C49.05 33.35 49.5333 32.2 50.5 31.2Z" fill="#BF7958"/>
<path d="M12.1 34.65C12.1 36.0167 12.5667 37.1667 13.5 38.1C14.4333 39.0667 15.55 39.55 16.85 39.55C18.2167 39.55 19.3667 39.0667 20.3 38.1C21.2333 37.1667 21.7 36.0167 21.7 34.65C21.7 33.35 21.2333 32.2 20.3 31.2C19.3667 30.2667 18.2167 29.8 16.85 29.8C15.55 29.8 14.4333 30.2667 13.5 31.2C12.5667 32.2 12.1 33.35 12.1 34.65ZM53.85 29.8C52.55 29.8 51.4333 30.2667 50.5 31.2C49.5333 32.2 49.05 33.35 49.05 34.65C49.05 36.0167 49.5333 37.1667 50.5 38.1C51.4333 39.0667 52.55 39.55 53.85 39.55C55.1833 39.55 56.3333 39.0667 57.3 38.1C58.2333 37.1667 58.7 36.0167 58.7 34.65C58.7 33.35 58.2333 32.2 57.3 31.2C56.3333 30.2667 55.1833 29.8 53.85 29.8Z" fill="#A8603F"/>
<path d="M47.55 48.2C51.15 47.7333 53.1833 45.8 53.65 42.4L56.3 16.4H14.45L17.65 48.2H47.55Z" fill="#BF7958"/>
<path d="M22.9 32.05C22.9 33.2167 23.2667 34.2167 24 35.05C24.8 35.95 25.8 36.4 27 36.4C28.1333 36.4 29.0833 35.95 29.85 35.05C30.6167 34.2167 31 33.2167 31 32.05C31 30.8833 30.6167 29.8833 29.85 29.05C29.0833 28.1833 28.1333 27.75 27 27.75C25.8 27.75 24.8 28.1833 24 29.05C23.2667 29.8833 22.9 30.8833 22.9 32.05ZM25.4 32.2V31.95C25.4333 31.25 25.6667 30.65 26.1 30.15C26.5667 29.6167 27.1333 29.35 27.8 29.35C28.5 29.35 29.0833 29.6167 29.55 30.15C29.9833 30.65 30.2167 31.25 30.25 31.95V32.2C30.2167 32.8667 29.9833 33.45 29.55 33.95C29.0833 34.4833 28.5 34.75 27.8 34.75C27.1333 34.75 26.5667 34.4833 26.1 33.95C25.6667 33.45 25.4333 32.8667 25.4 32.2ZM40.95 35.05C41.7833 35.95 42.7833 36.4 43.95 36.4C45.1167 36.4 46.05 35.95 46.75 35.05C47.5833 34.2167 48 33.2167 48 32.05C48 30.8833 47.5833 29.8833 46.75 29.05C46.05 28.1833 45.1167 27.75 43.95 27.75C42.7833 27.75 41.7833 28.1833 40.95 29.05C40.2167 29.8833 39.85 30.8833 39.85 32.05C39.85 33.2167 40.2167 34.2167 40.95 35.05ZM44.5 30.15C44.9667 30.65 45.2167 31.25 45.25 31.95V32.2C45.2167 32.8667 44.9667 33.45 44.5 33.95C44.0667 34.4833 43.5167 34.75 42.85 34.75C42.1833 34.75 41.5833 34.4833 41.05 33.95C40.65 33.45 40.4333 32.8667 40.4 32.2V31.85C40.4333 31.2167 40.65 30.65 41.05 30.15C41.5833 29.6167 42.1833 29.35 42.85 29.35C43.5167 29.35 44.0667 29.6167 44.5 30.15Z" fill="white"/>
<path d="M25.4 31.95V32.2C25.4333 32.8667 25.6667 33.45 26.1 33.95C26.5667 34.4833 27.1333 34.75 27.8 34.75C28.5 34.75 29.0833 34.4833 29.55 33.95C29.9833 33.45 30.2167 32.8667 30.25 32.2V31.95C30.2167 31.25 29.9833 30.65 29.55 30.15C29.0833 29.6167 28.5 29.35 27.8 29.35C27.1333 29.35 26.5667 29.6167 26.1 30.15C25.6667 30.65 25.4333 31.25 25.4 31.95ZM45.25 31.95C45.2167 31.25 44.9667 30.65 44.5 30.15C44.0667 29.6167 43.5167 29.35 42.85 29.35C42.1833 29.35 41.5833 29.6167 41.05 30.15C40.65 30.65 40.4333 31.2167 40.4 31.85V32.2C40.4333 32.8667 40.65 33.45 41.05 33.95C41.5833 34.4833 42.1833 34.75 42.85 34.75C43.5167 34.75 44.0667 34.4833 44.5 33.95C44.9667 33.45 45.2167 32.8667 45.25 32.2V31.95Z" fill="#3C3E41"/>
<path d="M32.45 28.9L32.65 26.05L21.85 25.55L21.7 28.4L32.45 28.9ZM38.75 26.05L38.95 28.9L49.7 28.4L49.55 25.55L38.75 26.05Z" fill="#3C3E41"/>
<path d="M35.15 36.9C32.7833 36.9 30.7833 37.3833 29.15 38.35C27.6167 39.2167 26.75 40.25 26.55 41.45C26.4833 41.6167 26.4833 41.8 26.55 42C26.6167 42.1667 26.7167 42.3167 26.85 42.45C26.9833 42.5833 27.15 42.6667 27.35 42.7C30.2167 43.1333 32.9167 42.8 35.45 41.7C37.95 42.8 40.65 43.1333 43.55 42.7C43.75 42.6667 43.9167 42.5833 44.05 42.45C44.1833 42.3167 44.2833 42.1667 44.35 42C44.4167 41.8 44.4333 41.6167 44.4 41.45C44.1667 40.25 43.2833 39.2167 41.75 38.35C40.0833 37.3833 38.0833 36.9 35.75 36.9C35.65 36.9 35.55 36.9 35.45 36.9C35.35 36.9 35.25 36.9 35.15 36.9Z" fill="#3C3E41"/>
<path d="M37.95 36.8C38.6167 36.3333 38.95 35.7833 38.95 35.15C38.95 34.55 38.6167 34 37.95 33.5C37.2833 33.0666 36.4667 32.85 35.5 32.85C34.5667 32.85 33.7667 33.0666 33.1 33.5C32.4333 34 32.1 34.55 32.1 35.15C32.1 35.7833 32.4333 36.3333 33.1 36.8C33.7667 37.3 34.5667 37.55 35.5 37.55C36.4667 37.55 37.2833 37.3 37.95 36.8Z" fill="#955435"/>
<path d="M15.25 16.9H15.2C14.5333 17 13.9833 17.3333 13.55 17.9C13.1167 18.4 12.95 18.9833 13.05 19.65L14.95 35.65C15.0167 36.2833 15.3167 36.8333 15.85 37.3C16.3833 37.7 16.9833 37.85 17.65 37.75H17.7C18.3667 37.6833 18.9 37.3833 19.3 36.85C19.7 36.3167 19.8667 35.7 19.8 35L17.9 19.1C17.8 18.4 17.4833 17.85 16.95 17.45C16.45 17.05 15.8833 16.8667 15.25 16.9ZM53.75 17.45C53.25 17.85 52.95 18.4 52.85 19.1L50.95 35C50.8833 35.7 51.05 36.3167 51.45 36.85C51.85 37.3833 52.3833 37.6833 53.05 37.75H53.1C53.7333 37.85 54.3167 37.7 54.85 37.3C55.4167 36.8333 55.7333 36.2833 55.8 35.65L57.7 19.65C57.8 18.9833 57.6333 18.4 57.2 17.9C56.7667 17.3333 56.2167 17 55.55 16.9H55.5C54.8333 16.8667 54.25 17.05 53.75 17.45Z" fill="#3C3E41"/>
<path d="M50.5 20.3C54.7667 18.9333 56.9 17.35 56.9 15.55C56.9 13.7833 54.7667 12.3333 50.5 11.2C46.3 10.0666 41.1833 9.58331 35.15 9.74998C29.1833 9.94998 24.0667 10.7333 19.8 12.1C15.5667 13.5 13.45 15.0833 13.45 16.85C13.45 18.65 15.5667 20.1 19.8 21.2C24.0667 22.3666 29.1833 22.85 35.15 22.65C41.1833 22.4833 46.3 21.7 50.5 20.3Z" fill="#3C3E41"/>
<defs>
<radialGradient id="paint0_radial_1718_19837" cx="0" cy="0" r="1" gradientUnits="userSpaceOnUse" gradientTransform="translate(34.4 48.1) scale(20.4816 13.5875)">
<stop stop-opacity="0.301961"/>
<stop offset="1" stop-opacity="0"/>
</radialGradient>
</defs>
</svg>
