<svg width="82" height="82" viewBox="0 0 82 82" fill="none" xmlns="http://www.w3.org/2000/svg">
<path d="M81.2348 14.7316C81.0669 8.01859 77.5258 4.66211 70.6115 4.66211H11.2521C4.37133 4.66211 0.847023 8.01859 0.679199 14.7316V71.0701C0.847023 77.8166 4.37133 81.1899 11.2521 81.1899H70.6115C77.5258 81.1899 81.0669 77.8166 81.2348 71.0701V14.7316Z" fill="url(#paint0_linear_1669_1223)"/>
<path d="M81.2348 11.2072C81.2348 4.15858 77.6937 0.634277 70.6115 0.634277H11.2521C4.2035 0.634277 0.679199 4.15858 0.679199 11.2072V14.7315C0.847023 8.01854 4.37133 4.66206 11.2521 4.66206H70.6115C77.5258 4.66206 81.0669 8.01854 81.2348 14.7315V11.2072Z" fill="url(#paint1_linear_1669_1223)"/>
<path d="M30.7383 35.1533C28.7916 33.173 26.4253 32.1829 23.6394 32.1829C20.8535 32.1829 18.4872 33.173 16.5404 35.1533C14.5601 37.1001 13.5699 39.4664 13.5699 42.2523H33.7088C33.7088 39.4664 32.7187 37.1001 30.7383 35.1533Z" fill="white"/>
<path d="M27.919 37.9728C26.7442 36.7981 25.3177 36.2107 23.6394 36.2107C21.9948 36.2107 20.585 36.7981 19.4103 37.9728C18.2019 39.1476 17.5978 40.5741 17.5978 42.2524H29.6811C29.6811 40.5741 29.0937 39.1476 27.919 37.9728Z" fill="#3D465D"/>
<path d="M60.9467 35.1533C59 33.173 56.6336 32.1829 53.8478 32.1829C51.0619 32.1829 48.6956 33.173 46.7488 35.1533C44.7685 37.1001 43.7783 39.4664 43.7783 42.2523H63.9172C63.9172 39.4664 62.927 37.1001 60.9467 35.1533Z" fill="white"/>
<path d="M58.1273 37.9728C56.9526 36.7981 55.5261 36.2107 53.8478 36.2107C52.2031 36.2107 50.7934 36.7981 49.6187 37.9728C48.4103 39.1476 47.8062 40.5741 47.8062 42.2524H59.8895C59.8895 40.5741 59.3021 39.1476 58.1273 37.9728Z" fill="#3D465D"/>
<path d="M12.5127 34.8009L13.3182 37.7211C13.4525 38.2917 13.7546 38.7112 14.2245 38.9797C14.6944 39.2483 15.1979 39.3154 15.7349 39.1811L31.2922 35.0023C31.8628 34.868 32.2824 34.5492 32.5509 34.0457C32.8194 33.6094 32.8865 33.1059 32.7523 32.5353L31.9467 29.6152C31.8125 29.0781 31.5104 28.6586 31.0405 28.3565C30.5706 28.1215 30.0503 28.0712 29.4797 28.2054L13.9224 32.3843C13.3854 32.5185 12.9826 32.8206 12.7141 33.2905C12.4456 33.7604 12.3784 34.2639 12.5127 34.8009Z" fill="#3D465D"/>
<path d="M44.9867 29.1117C45.2216 29.548 45.6244 29.8333 46.195 29.9676L61.7523 34.1464C62.2893 34.3142 62.8096 34.2807 63.3131 34.0457C63.7494 33.7436 64.0347 33.3241 64.169 32.7871L64.9745 29.8669C65.1088 29.2963 65.0584 28.7928 64.8235 28.3565C64.5214 27.853 64.1018 27.5174 63.5648 27.3496L48.0075 23.1707C47.4369 23.0365 46.9334 23.1204 46.4971 23.4225C45.9936 23.6574 45.6748 24.0602 45.5405 24.6308L44.7349 27.5509C44.6007 28.088 44.6846 28.6082 44.9867 29.1117Z" fill="#3D465D"/>
<path d="M48.7627 49.2002C48.2928 48.8981 47.7725 48.831 47.2019 48.9988C46.6649 49.1331 46.2453 49.4184 45.9433 49.8547C45.6747 50.224 45.2887 50.5764 44.7853 50.912C43.5434 51.684 42.0833 52.07 40.4051 52.07C39.6331 52.07 38.9114 52.0029 38.2401 51.8686C37.6695 51.7679 37.1493 51.8686 36.6794 52.1707C36.2095 52.4057 35.9074 52.8084 35.7731 53.379C35.6389 53.8825 35.7396 54.3692 36.0752 54.8391C36.3437 55.2419 36.7801 55.5104 37.3842 55.6447C38.2905 55.8461 39.2974 55.9468 40.4051 55.9468C42.9896 55.9468 45.2216 55.3426 47.1012 54.1343L47.0509 54.1846C48.1921 53.4797 49.0312 52.691 49.5683 51.8183C49.8368 51.3484 49.9039 50.8617 49.7696 50.3582C49.6018 49.8212 49.2662 49.4352 48.7627 49.2002Z" fill="#3D465D"/>
<defs>
<linearGradient id="paint0_linear_1669_1223" x1="40.957" y1="0.634331" x2="40.957" y2="81.1899" gradientUnits="userSpaceOnUse">
<stop stop-color="#71CF93"/>
<stop offset="1" stop-color="#59B15C"/>
</linearGradient>
<linearGradient id="paint1_linear_1669_1223" x1="40.7052" y1="0.382541" x2="40.7052" y2="44.1846" gradientUnits="userSpaceOnUse">
<stop stop-color="#85DFAF"/>
<stop offset="1" stop-color="#69C581"/>
</linearGradient>
</defs>
</svg>
