<!-- icon666.com - MILLIONS vector ICONS FREE --><svg viewBox="0 0 32 32" xmlns="http://www.w3.org/2000/svg"><g id="artwork"><path d="m24 20.25h-14.963l-1.144-9.157a.75.75 0 0 1 1.488-.186l.98 7.842h13.639a.75.75 0 0 1 0 1.5z" fill="#c8cee5"></path><path d="m28.552 19.622 2.124-9a2.7 2.7 0 0 0 -.516-2.311 2.8 2.8 0 0 0 -2.206-1.061h-20.542l-.449-3.591a2.755 2.755 0 0 0 -2.729-2.409h-2.234a.75.75 0 0 0 0 1.5h2.234a1.253 1.253 0 0 1 1.241 1.1l2.343 18.739a4.751 4.751 0 0 0 2.242 3.464 2.761 2.761 0 1 0 4.376.7h10.129a2.721 2.721 0 0 0 -.315 1.247 2.751 2.751 0 1 0 2.75-2.75h-14.469a3.255 3.255 0 0 1 -3.224-2.85l-.082-.653h16.6a2.772 2.772 0 0 0 2.727-2.125zm-16.552 9.628a1.25 1.25 0 1 1 1.25-1.25 1.252 1.252 0 0 1 -1.25 1.25zm16.25-1.25a1.25 1.25 0 1 1 -1.25-1.25 1.251 1.251 0 0 1 1.25 1.25zm-20.65-19.25h20.354a1.3 1.3 0 0 1 1.03.492 1.215 1.215 0 0 1 .233 1.035l-2.125 9a1.279 1.279 0 0 1 -1.262.972h-16.784-.008z" fill="#1c3754"></path><g fill="#69c7e0"><rect height="7.5" rx=".75" width="3.5" x="12.25" y="10.25"></rect><rect height="7.5" rx=".75" width="3.5" x="17.25" y="10.25"></rect><rect height="7.5" rx=".75" width="3.5" x="22.25" y="10.25"></rect></g></g></svg>