<svg width="64" height="96" viewBox="0 0 64 96" fill="none" xmlns="http://www.w3.org/2000/svg">
<path d="M16.9 32.55L13.2 32.35C12.8 32.3166 12.4333 32.45 12.1 32.75C11.7667 33.05 11.5833 33.4166 11.55 33.85C11.3167 38.55 9.45 42.6833 5.95 46.25C5.65 46.4833 5.5 46.8166 5.5 47.25C5.46667 47.7166 5.58333 48.1 5.85 48.4V48.45C5.88333 48.4166 5.91667 48.3833 5.95 48.35C11.1167 43.85 14.5833 38.9 16.35 33.5C16.45 33.1666 16.6333 32.85 16.9 32.55Z" fill="#454A51"/>
<path d="M27.35 33.15L16.9 32.55C16.6333 32.85 16.45 33.1666 16.35 33.5C14.5833 38.9 11.1167 43.85 5.95001 48.35C5.91667 48.3833 5.88334 48.4166 5.85001 48.45C6.15001 48.75 6.50001 48.9333 6.90001 49C17.9 50.1666 25.2 45.6166 28.8 35.35C28.9 34.9833 28.9167 34.65 28.85 34.35C28.75 34.0166 28.5667 33.75 28.3 33.55C28 33.2833 27.6833 33.15 27.35 33.15Z" fill="#3C3E41"/>
<path d="M50.3 33.5C50.2 33.1666 50.0167 32.85 49.75 32.55L39.3 33.15C38.9667 33.15 38.65 33.2833 38.35 33.55C38.0833 33.75 37.9 34.0166 37.8 34.35C37.7333 34.65 37.75 34.9833 37.85 35.35C41.45 45.6166 48.75 50.1666 59.75 49C60.15 48.9333 60.5 48.75 60.8 48.45C60.7667 48.4166 60.7333 48.3833 60.7 48.35C55.5333 43.85 52.0667 38.9 50.3 33.5Z" fill="#3C3E41"/>
<path d="M55.1 33.85C55.0667 33.4166 54.8833 33.05 54.55 32.75C54.2167 32.45 53.85 32.3166 53.45 32.35L49.75 32.55C50.0167 32.85 50.2 33.1666 50.3 33.5C52.0667 38.9 55.5333 43.85 60.7 48.35C60.7333 48.3833 60.7667 48.4166 60.8 48.45V48.4C61.0667 48.1 61.1833 47.7166 61.15 47.25C61.15 46.8166 61 46.4833 60.7 46.25C57.2 42.6833 55.3333 38.55 55.1 33.85Z" fill="#454A51"/>
<path d="M50.9 95.95L51 92.95H36.05V95.95H50.9Z" fill="white"/>
<path d="M51 92.95C47.7667 92.05 45.85 90.05 45.25 86.95H36.05V92.95H51Z" fill="#BFD4E5"/>
<path d="M45.25 86.95H45.3L45.45 81.95H36.05V86.95H45.25Z" fill="#BF7958"/>
<path d="M45.9 72.75C45.9 71.15 45.2667 69.7833 44 68.65C42.7667 67.5166 41.25 66.95 39.45 66.95C37.6833 66.95 36.1667 67.5166 34.9 68.65C33.6333 69.7833 33 71.15 33 72.75C34.9667 74.35 35.9833 77.4166 36.05 81.95H45.45L45.9 72.75Z" fill="#676AC6"/>
<path d="M13.1 95.95L13 92.95H27.95V95.95H13.1Z" fill="white"/>
<path d="M13 92.95C16.2333 92.05 18.15 90.05 18.75 86.95H27.95V92.95H13Z" fill="#BFD4E5"/>
<path d="M18.75 86.95H18.7L18.55 81.95H27.95V86.95H18.75Z" fill="#BF7958"/>
<path d="M18.1 72.75C18.1 71.15 18.7333 69.7833 20 68.65C21.2333 67.5166 22.75 66.95 24.55 66.95C26.3167 66.95 27.8333 67.5166 29.1 68.65C30.3667 69.7833 31 71.15 31 72.75C29.0333 74.35 28.0167 77.4166 27.95 81.95H18.55L18.1 72.75Z" fill="#676AC6"/>
<path d="M54.6 71.15C55.0333 73.5167 55.3333 75.35 55.5 76.65C55.6666 77.95 56.4666 78.6667 57.9 78.8C59.2666 78.9 60.4833 78.5 61.55 77.6C62.6166 76.7 63.2166 75.5833 63.35 74.25C63.6166 71.2833 63.4 68.4333 62.7 65.7L53.95 68.95C54.25 69.7167 54.4666 70.45 54.6 71.15Z" fill="#BF7958"/>
<path d="M50.05 62.55C50.8833 63.65 51.6167 64.7 52.25 65.7L61.35 61.85C60.75 60.4833 60.0167 59.1333 59.15 57.8C57.4167 55.1333 55.15 52.5667 52.35 50.1C51.2833 49.1667 50.05 48.7333 48.65 48.8C47.2167 48.8667 46.05 49.4167 45.15 50.45C44.15 51.4167 43.6833 52.6 43.75 54C43.8167 55.3667 44.3833 56.5 45.45 57.4C47.3167 59.0667 48.85 60.7833 50.05 62.55Z" fill="#3DBF7B"/>
<path d="M62.7 65.7L63.75 65.25L62.65 61.3L61.35 61.85L52.25 65.7L51.35 66.05L52.65 69.45L53.95 68.95L62.7 65.7Z" fill="#25A863"/>
<path d="M9.40002 71.15C8.96668 73.5167 8.66668 75.35 8.50002 76.65C8.33335 77.95 7.53335 78.6667 6.10002 78.8C4.73335 78.9 3.51668 78.5 2.45002 77.6C1.38335 76.7 0.783351 75.5833 0.650018 74.25C0.383351 71.2833 0.600018 68.4333 1.30002 65.7L10.05 68.95C9.75002 69.7167 9.53335 70.45 9.40002 71.15Z" fill="#BF7958"/>
<path d="M13.95 62.55C13.1167 63.65 12.3833 64.7 11.75 65.7L2.65001 61.85C3.25001 60.4833 3.98334 59.1333 4.85001 57.8C6.58334 55.1333 8.85001 52.5667 11.65 50.1C12.7167 49.1667 13.95 48.7333 15.35 48.8C16.7833 48.8667 17.95 49.4167 18.85 50.45C19.85 51.4167 20.3167 52.6 20.25 54C20.1833 55.3667 19.6167 56.5 18.55 57.4C16.6833 59.0667 15.15 60.7833 13.95 62.55Z" fill="#3DBF7B"/>
<path d="M1.29999 65.7L0.249994 65.25L1.34999 61.3L2.64999 61.85L11.75 65.7L12.65 66.05L11.35 69.45L10.05 68.95L1.29999 65.7Z" fill="#25A863"/>
<path d="M18.25 73.5C18.2167 74.9333 18.4167 76.45 18.85 78.05H44.15C44.5833 76.45 44.7833 74.9333 44.75 73.5H18.25Z" fill="#676AC6"/>
<path d="M18.1 68.55H21.05C21.55 65.7166 20.0333 63.05 16.5 60.55L16.7 61.35C17.4 63.5833 17.8667 65.9833 18.1 68.55ZM46.3 61.35L46.5 60.55C42.9667 63.05 41.4667 65.7166 42 68.55H44.95C45.1833 65.9833 45.6333 63.5833 46.3 61.35ZM41.45 60.95C41.45 60.3833 40.5 59.8833 38.6 59.45C36.6333 59.1166 34.2667 58.95 31.5 58.95C28.7333 58.95 26.3667 59.1166 24.4 59.45C22.5 59.8833 21.55 60.3833 21.55 60.95C21.55 61.5166 22.5 61.9666 24.4 62.3C26.3667 62.7333 28.7333 62.95 31.5 62.95C34.2667 62.95 36.6333 62.7333 38.6 62.3C40.5 61.9666 41.45 61.5166 41.45 60.95Z" fill="#25A863"/>
<path d="M46.1 68.55H44.95H42H21.05H18.1H16.95L17.7 73.5H18.25H44.75H45.35L46.1 68.55Z" fill="#3C3E41"/>
<path d="M49.75 54.2C50.4167 50.8333 49.7167 49.0833 47.65 48.95C47.4833 48.95 47.3167 48.95 47.15 48.95H15.85C13.4167 48.8166 12.55 50.5666 13.25 54.2C14.7167 56.3 15.8667 58.6833 16.7 61.35L16.5 60.55C20.0333 63.05 21.55 65.7166 21.05 68.55H42C41.4667 65.7166 42.9667 63.05 46.5 60.55L46.3 61.35C47.1333 58.6833 48.2833 56.3 49.75 54.2ZM38.6 59.45C40.5 59.8833 41.45 60.3833 41.45 60.95C41.45 61.5166 40.5 61.9666 38.6 62.3C36.6333 62.7333 34.2667 62.95 31.5 62.95C28.7333 62.95 26.3667 62.7333 24.4 62.3C22.5 61.9666 21.55 61.5166 21.55 60.95C21.55 60.3833 22.5 59.8833 24.4 59.45C26.3667 59.1166 28.7333 58.95 31.5 58.95C34.2667 58.95 36.6333 59.1166 38.6 59.45Z" fill="#3DBF7B"/>
<path d="M42.05 48.8C41.85 50.9333 40.85 52.7667 39.05 54.3C36.95 56.0667 34.4333 56.95 31.5 56.95C28.5666 56.95 26.05 56.0667 23.95 54.3C22.15 52.8 21.1666 51 21 48.9C20.6333 49.7333 20.45 50.6 20.45 51.5C20.45 51.6667 20.4666 51.8333 20.5 52C20.6 54.0667 21.65 55.8167 23.65 57.25C25.8166 58.8833 28.4333 59.7 31.5 59.7C34.5666 59.7 37.2 58.8833 39.4 57.25C41.4 55.8167 42.45 54.0667 42.55 52C42.5833 51.8333 42.6 51.6667 42.6 51.5C42.6 50.5667 42.4166 49.6667 42.05 48.8Z" fill="white"/>
<path d="M42.1 48C42.1 45.5333 41.0833 43.4 39.05 41.6C36.95 39.9 34.4333 39.05 31.5 39.05C28.5667 39.05 26.05 39.9 23.95 41.6C21.9167 43.4 20.9 45.5333 20.9 48C20.9 48.1667 20.9167 48.3333 20.95 48.5C20.95 48.6333 20.9667 48.7667 21 48.9C21.1667 51 22.15 52.8 23.95 54.3C26.05 56.0667 28.5667 56.95 31.5 56.95C34.4333 56.95 36.95 56.0667 39.05 54.3C40.85 52.7667 41.85 50.9333 42.05 48.8C42.05 48.7 42.05 48.6 42.05 48.5C42.0833 48.3333 42.1 48.1667 42.1 48Z" fill="#BF7958"/>
<path d="M50 83.5L49.95 82.55C50.2833 78.4167 51.8167 75.2 54.55 72.9C48.2833 77.2667 46.75 80.8167 49.95 83.55L50 83.5Z" fill="#A8603F"/>
<path d="M62.55 72.9H54.55C51.8167 75.2 50.2833 78.4167 49.95 82.55L50 83.5L49.95 83.55C49.9167 84.65 49.9167 85.8333 49.95 87.1V87.45C49.95 88.4167 50.6333 89.0333 52 89.3C54.0667 89.7333 56.0667 89.9333 58 89.9C62.9333 89.8667 64.45 84.2 62.55 72.9Z" fill="#BF7958"/>
<path d="M14 83.5L14.05 82.55C13.7167 78.4167 12.1833 75.2 9.45001 72.9C15.7167 77.2667 17.25 80.8167 14.05 83.55L14 83.5Z" fill="#A8603F"/>
<path d="M1.45001 72.9H9.45001C12.1833 75.2 13.7167 78.4167 14.05 82.55L14 83.5L14.05 83.55C14.0833 84.65 14.0833 85.8333 14.05 87.1V87.45C14.05 88.4167 13.3667 89.0333 12 89.3C9.93335 89.7333 7.93335 89.9333 6.00001 89.9C1.06668 89.8667 -0.449987 84.2 1.45001 72.9Z" fill="#BF7958"/>
<path d="M46.6448 40.55C42.7256 37.95 37.9773 36.65 32.4 36.65C26.8227 36.65 22.0242 37.95 18.0045 40.55C14.0853 43.2167 12.1257 46.4 12.1257 50.1C12.1257 53.8 14.0853 56.95 18.0045 59.55C22.0242 62.2167 26.8227 63.55 32.4 63.55C37.9773 63.55 42.7256 62.2167 46.6448 59.55C50.6645 56.95 52.6743 53.8 52.6743 50.1C52.6743 46.4 50.6645 43.2167 46.6448 40.55Z" fill="url(#paint0_radial_1718_15521)"/>
<path d="M57.6 23.65C57.2333 18.85 54.8333 14.7 50.4 11.2C45.5667 7.36662 39.7333 5.44995 32.9 5.44995C26.0667 5.44995 20.2333 7.36662 15.4 11.2C11 14.7 8.61667 18.85 8.25 23.65C8.61667 29.0833 11 33.7666 15.4 37.7C20.2333 42.0333 26.0667 44.2 32.9 44.2C39.7333 44.2 45.5667 42.0333 50.4 37.7C54.8333 33.7666 57.2333 29.0833 57.6 23.65Z" fill="#3C3E41"/>
<path opacity="0.1" d="M57.65 22.2C57.65 16.1333 55.2333 10.9333 50.4 6.59995C45.5667 2.33329 39.7333 0.199951 32.9 0.199951C26.0667 0.199951 20.2333 2.33329 15.4 6.59995C10.6 10.9333 8.20001 16.1333 8.20001 22.2C8.20001 22.7 8.21668 23.1833 8.25001 23.65C8.61668 18.85 11 14.7 15.4 11.2C20.2333 7.36662 26.0667 5.44995 32.9 5.44995C39.7333 5.44995 45.5667 7.36662 50.4 11.2C54.8333 14.7 57.2333 18.85 57.6 23.65C57.6333 23.1833 57.65 22.7 57.65 22.2Z" fill="#454A51"/>
<path d="M9.20001 25.2499C7.63334 26.8166 6.85001 28.7333 6.85001 30.9999C6.85001 33.1999 7.63334 35.0833 9.20001 36.6499C10.7667 38.2833 12.65 39.0999 14.85 39.0999C17.0167 39.0999 18.9 38.2833 20.5 36.6499C22.0667 35.0833 22.85 33.1999 22.85 30.9999C22.85 28.7333 22.0667 26.8166 20.5 25.2499C18.9 23.6499 17.0167 22.8499 14.85 22.8499C12.65 22.8499 10.7667 23.6499 9.20001 25.2499ZM11.45 34.3999C10.5167 33.4666 10.05 32.3333 10.05 30.9999C10.05 29.6999 10.5167 28.5333 11.45 27.4999C12.3833 26.5666 13.5167 26.0999 14.85 26.0999C16.2167 26.0999 17.35 26.5666 18.25 27.4999C19.1833 28.5333 19.65 29.6999 19.65 30.9999C19.65 32.3333 19.1833 33.4666 18.25 34.3999C17.35 35.3666 16.2167 35.8499 14.85 35.8499C13.5167 35.8499 12.3833 35.3666 11.45 34.3999ZM46.2 36.6499C47.7667 38.2833 49.65 39.0999 51.85 39.0999C54.0167 39.0999 55.9 38.2833 57.5 36.6499C59.0667 35.0833 59.85 33.1999 59.85 30.9999C59.85 28.7333 59.0667 26.8166 57.5 25.2499C55.9 23.6499 54.0167 22.8499 51.85 22.8499C49.65 22.8499 47.7667 23.6499 46.2 25.2499C44.6333 26.8166 43.85 28.7333 43.85 30.9999C43.85 33.1999 44.6333 35.0833 46.2 36.6499ZM48.45 27.4999C49.3833 26.5666 50.5167 26.0999 51.85 26.0999C53.1833 26.0999 54.3167 26.5666 55.25 27.4999C56.1833 28.5333 56.65 29.6999 56.65 30.9999C56.65 32.3333 56.1833 33.4666 55.25 34.3999C54.3167 35.3666 53.1833 35.8499 51.85 35.8499C50.5167 35.8499 49.3833 35.3666 48.45 34.3999C47.5167 33.4666 47.05 32.3333 47.05 30.9999C47.05 29.6999 47.5167 28.5333 48.45 27.4999Z" fill="#BF7958"/>
<path d="M10.05 30.9999C10.05 32.3333 10.5167 33.4666 11.45 34.3999C12.3834 35.3666 13.5167 35.8499 14.85 35.8499C16.2167 35.8499 17.35 35.3666 18.25 34.3999C19.1834 33.4666 19.65 32.3333 19.65 30.9999C19.65 29.6999 19.1834 28.5333 18.25 27.4999C17.35 26.5666 16.2167 26.0999 14.85 26.0999C13.5167 26.0999 12.3834 26.5666 11.45 27.4999C10.5167 28.5333 10.05 29.6999 10.05 30.9999ZM51.85 26.0999C50.5167 26.0999 49.3834 26.5666 48.45 27.4999C47.5167 28.5333 47.05 29.6999 47.05 30.9999C47.05 32.3333 47.5167 33.4666 48.45 34.3999C49.3834 35.3666 50.5167 35.8499 51.85 35.8499C53.1834 35.8499 54.3167 35.3666 55.25 34.3999C56.1833 33.4666 56.65 32.3333 56.65 30.9999C56.65 29.6999 56.1833 28.5333 55.25 27.4999C54.3167 26.5666 53.1834 26.0999 51.85 26.0999Z" fill="#A8603F"/>
<path d="M51.95 38.5499L54.25 15.9999H12.4L14.7 38.5499C16.0667 43.4833 19.5333 46.9166 25.1 48.8499C27.9 49.8166 30.6333 50.2666 33.3 50.1999C36 50.2666 38.7333 49.8166 41.5 48.8499C47.1 46.9166 50.5833 43.4833 51.95 38.5499Z" fill="#BF7958"/>
<path d="M35.7 37.35C36.4 36.8833 36.75 36.35 36.75 35.75C36.75 35.15 36.4 34.6 35.7 34.1C35.0333 33.6666 34.2167 33.45 33.25 33.45C32.35 33.45 31.5667 33.6666 30.9 34.1C30.2333 34.6 29.9 35.15 29.9 35.75C29.9 36.35 30.2333 36.8833 30.9 37.35C31.5667 37.8833 32.35 38.15 33.25 38.15C34.2167 38.15 35.0333 37.8833 35.7 37.35Z" fill="#955435"/>
<path d="M20.75 32.9999C20.75 32.8666 20.75 32.7499 20.75 32.6499C20.75 31.4833 21.1333 30.4833 21.9 29.6499C22.5333 28.9833 23.3 28.5666 24.2 28.3999H18.45C19.85 29.4999 20.6167 31.0333 20.75 32.9999ZM27.4 35.1499C27.8667 34.4833 28.1 33.6499 28.1 32.6499C28.1 31.6833 27.8667 30.8499 27.4 30.1499C26.9333 29.4499 26.35 29.0999 25.65 29.0999C24.9833 29.0999 24.4333 29.4499 24 30.1499C23.5333 30.8499 23.3 31.6833 23.3 32.6499C23.3 33.6499 23.5333 34.4833 24 35.1499C24.4333 35.8499 24.9833 36.1999 25.65 36.1999C26.35 36.1999 26.9333 35.8499 27.4 35.1499ZM45.9 32.6499C45.9 32.7499 45.9 32.8666 45.9 32.9999C46.0333 31.0333 46.7833 29.4999 48.15 28.3999H42.45C43.35 28.5666 44.1167 28.9833 44.75 29.6499C45.5167 30.4833 45.9 31.4833 45.9 32.6499ZM38.55 32.6499C38.55 33.6499 38.7833 34.4833 39.25 35.1499C39.6833 35.8499 40.25 36.1999 40.95 36.1999C41.6167 36.1999 42.1833 35.8499 42.65 35.1499C43.1167 34.4833 43.35 33.6499 43.35 32.6499C43.35 31.6833 43.1167 30.8499 42.65 30.1499C42.1833 29.4499 41.6167 29.0999 40.95 29.0999C40.25 29.0999 39.6833 29.4499 39.25 30.1499C38.7833 30.8499 38.55 31.6833 38.55 32.6499Z" fill="#3C3E41"/>
<path d="M24.6 28.3499C24.4667 28.3499 24.3333 28.3666 24.2 28.3999C23.3 28.5666 22.5333 28.9833 21.9 29.6499C21.1333 30.4833 20.75 31.4833 20.75 32.6499C20.75 32.7499 20.75 32.8666 20.75 32.9999C20.8167 33.9999 21.2 34.8833 21.9 35.6499C22.7 36.5166 23.6833 36.9499 24.85 36.9499C25.9833 36.9499 26.9333 36.5166 27.7 35.6499C28.5 34.8166 28.9 33.8166 28.9 32.6499C28.9 31.4833 28.5 30.4833 27.7 29.6499C26.9333 28.7833 25.9833 28.3499 24.85 28.3499C24.75 28.3499 24.6667 28.3499 24.6 28.3499ZM28.1 32.6499C28.1 33.6499 27.8667 34.4833 27.4 35.1499C26.9333 35.8499 26.35 36.1999 25.65 36.1999C24.9833 36.1999 24.4333 35.8499 24 35.1499C23.5333 34.4833 23.3 33.6499 23.3 32.6499C23.3 31.6833 23.5333 30.8499 24 30.1499C24.4333 29.4499 24.9833 29.0999 25.65 29.0999C26.35 29.0999 26.9333 29.4499 27.4 30.1499C27.8667 30.8499 28.1 31.6833 28.1 32.6499ZM42.45 28.3999C42.3167 28.3666 42.1833 28.3499 42.05 28.3499C41.95 28.3499 41.85 28.3499 41.75 28.3499C40.6167 28.3499 39.6833 28.7833 38.95 29.6499C38.15 30.4833 37.75 31.4833 37.75 32.6499C37.75 33.8166 38.15 34.8166 38.95 35.6499C39.6833 36.5166 40.6167 36.9499 41.75 36.9499C42.95 36.9499 43.95 36.5166 44.75 35.6499C45.45 34.8833 45.8333 33.9999 45.9 32.9999C45.9 32.8666 45.9 32.7499 45.9 32.6499C45.9 31.4833 45.5167 30.4833 44.75 29.6499C44.1167 28.9833 43.35 28.5666 42.45 28.3999ZM39.25 35.1499C38.7833 34.4833 38.55 33.6499 38.55 32.6499C38.55 31.6833 38.7833 30.8499 39.25 30.1499C39.6833 29.4499 40.25 29.0999 40.95 29.0999C41.6167 29.0999 42.1833 29.4499 42.65 30.1499C43.1167 30.8499 43.35 31.6833 43.35 32.6499C43.35 33.6499 43.1167 34.4833 42.65 35.1499C42.1833 35.8499 41.6167 36.1999 40.95 36.1999C40.25 36.1999 39.6833 35.8499 39.25 35.1499Z" fill="white"/>
<path d="M35.6 43.4V40.2H27.95C27.7167 40.2 27.5 40.2833 27.3 40.45C27.0667 40.55 26.9333 40.7166 26.9 40.95C26.8333 41.1166 26.8333 41.3333 26.9 41.6C26.9333 41.9333 27.05 42.2833 27.25 42.65C27.4167 42.8833 27.6 43.1333 27.8 43.4H35.6Z" fill="white"/>
<path d="M38.75 40.2H35.6V43.4H27.8C28 43.7666 28.2667 44.0666 28.6 44.3C29.9 45.5666 31.4834 46.2 33.35 46.2C35.15 46.2 36.7167 45.5833 38.05 44.35L38.15 44.3C38.65 43.8333 39.0667 43.2833 39.4 42.65C39.6 42.2833 39.75 41.9333 39.85 41.6C39.8834 41.3333 39.8667 41.1166 39.8 40.95C39.7334 40.7166 39.6 40.55 39.4 40.45C39.2 40.2833 38.9834 40.2 38.75 40.2Z" fill="#A8603F"/>
<path d="M53.9 24.55L54.9 16.15H54.35V15.3H11.65L12.3 22.95C19.4667 22.8166 24.7667 21.45 28.2 18.85C31.6667 23.15 35.35 25.35 39.25 25.45L40.7 22.35C45.2 24.0166 49.6 24.75 53.9 24.55Z" fill="#3C3E41"/>
<path d="M50.95 15.25C50.4167 14.5166 49.75 13.8 48.95 13.1C45.25 9.96663 40.05 8.39996 33.35 8.39996C26.65 8.39996 21.4667 9.94996 17.8 13.05C17.5333 13.2166 17.3167 13.4166 17.15 13.65C16.5833 14.1166 16.1167 14.65 15.75 15.25C15.35 15.7833 15.3 16.4333 15.6 17.2C19.9 14.7333 25.8167 13.5 33.35 13.5C40.8167 13.5 46.7167 14.7166 51.05 17.15C51.35 16.4166 51.3167 15.7833 50.95 15.25Z" fill="#71A2BE"/>
<path d="M17.25 29.65C17.65 29.1166 17.8167 28.5 17.75 27.8L17.1 22.15H12.15L12.9 28.4C12.9667 29.0666 13.2833 29.6333 13.85 30.1C14.3833 30.5 14.9833 30.65 15.65 30.55H15.7C16.3667 30.4833 16.8833 30.1833 17.25 29.65Z" fill="#3C3E41"/>
<path d="M48.7 27.8C48.6333 28.5 48.8 29.1166 49.2 29.65C49.6 30.1833 50.1333 30.4833 50.8 30.55H50.85C51.5167 30.65 52.1167 30.5 52.65 30.1C53.2167 29.6333 53.5333 29.0666 53.6 28.4L54.35 22.15H49.35L48.7 27.8Z" fill="#3C3E41"/>
<path d="M19.5 23.8499L18.85 26.2499L28.3 27.1999L28.85 25.1999L19.5 23.8499Z" fill="#3C3E41"/>
<path d="M47.85 26.3999L47.45 23.9999L38.1 24.4499L38.45 26.4999L47.85 26.3999Z" fill="#3C3E41"/>
<path d="M53.7 34.4C53.4334 34.8666 53.3667 35.3333 53.5 35.8L54.5 39.65C54.6333 40.1166 54.9167 40.4833 55.35 40.75C55.7833 40.9833 56.25 41.0333 56.75 40.9H56.8C57.2667 40.7666 57.6333 40.4833 57.9 40.05C58.1667 39.5833 58.2333 39.1 58.1 38.6L57.1 34.8C56.9667 34.3333 56.6667 33.9666 56.2 33.7C55.7334 33.4666 55.2833 33.4166 54.85 33.55H54.8C54.3 33.6833 53.9334 33.9666 53.7 34.4Z" fill="#EEA160"/>
<path d="M13.05 34.4C12.8167 33.9666 12.45 33.6833 11.95 33.55H11.9C11.4333 33.4166 10.9667 33.4666 10.5 33.7C10.0333 33.9666 9.73334 34.3333 9.60001 34.8L8.65001 38.6C8.51668 39.1 8.58334 39.5833 8.85001 40.05C9.11668 40.4833 9.46668 40.7666 9.90001 40.9H9.95001C10.45 41.0333 10.9167 40.9833 11.35 40.75C11.8167 40.4833 12.1167 40.1166 12.25 39.65L13.25 35.8C13.3833 35.3333 13.3167 34.8666 13.05 34.4Z" fill="#EEA160"/>
<defs>
<radialGradient id="paint0_radial_1718_15521" cx="0" cy="0" r="1" gradientUnits="userSpaceOnUse" gradientTransform="translate(32.4 50.1) scale(20.4816 13.5875)">
<stop stop-opacity="0.301961"/>
<stop offset="1" stop-opacity="0"/>
</radialGradient>
</defs>
</svg>
